# xmcd
#
# Track frame offsets:
#	183
#	17708
#	36838
#	55690
#	74185
#	99353
#	115865
#	135475
#	153048
#	171035
#	188565
#	212938
#	229478
#
# Disc length: 3457 seconds
#
# Revision: 4
# Processed by: cddbd v1.5.2PL0 Copyright (c) Steve Scherf et al.
# Submitted via: audiograbber 1.83.01
#
DISCID=ae0d7f0d
DTITLE=Silje - Tell me where you're going
DYEAR=1990
DGENRE=Pop
TTITLE0=Tell me where you're going
TTITLE1=Fall
TTITLE2=Roundabout
TTITLE3=The Middle of Love
TTITLE4=Move along, Ruby
TTITLE5=The Meter's running
TTITLE6=Welcome to another day
TTITLE7=Faces
TTITLE8=Louis, come back
TTITLE9=For tomorrow
TTITLE10=Tell me where you're going (featuring Pat Metheny)
TTITLE11=Marlena
TTITLE12=Waltz for you
EXTD=
EXTT0=
EXTT1=
EXTT2=
EXTT3=
EXTT4=
EXTT5=
EXTT6=
EXTT7=
EXTT8=
EXTT9=
EXTT10=
EXTT11=
EXTT12=
PLAYORDER=
